<svg xmlns="http://www.w3.org/2000/svg" viewBox="0 0 344.27 344.68"><defs><style>.cls-1{fill:#004b81;}.cls-2{fill:#0cb6ea;}.cls-3{fill:#caab60;}</style></defs><g id="Layer_2" data-name="Layer 2"><g id="Layer_1-2" data-name="Layer 1"><path class="cls-1" d="M268,110.24c0,24.73-.16,49.47.11,74.21.07,6.29-1.87,8-8.16,7.41-7.83-.68-15.79,0-23.7.26-5.24.15-7.41-1.85-7.28-7.45.67-27.75,0-55.51.55-83.28.31-15.1-.25-30.3-.42-45.45,0-2.86-.92-4.37-3.7-5.82-11.14-5.8-23.25-8.53-35.37-10.16-29-3.9-56.69,1.14-82.2,15.59-39,22.08-62.52,55.42-67.76,100-4.14,35.26-.77,70.85-1.55,106.29-.07,3.49.11,7,0,10.49-.08,1.7.78,4.21-1.63,4.75-1.68.38-2.74-1.6-3.65-2.89a179,179,0,0,1-15.23-25C3.76,220-2.21,189.12.73,156.89,4,121.23,17.38,89.51,40.34,61.82c19.55-23.58,43.79-40.93,72.28-51.19,32.07-11.55,65.27-14,98.9-5.82a183.42,183.42,0,0,1,51,21c4.23,2.52,5.57,5.47,5.54,10.17C267.93,60.78,268,85.52,268,110.24Z"/><path class="cls-1" d="M307.23,67.58c7.42,5.94,11.63,14.31,16,22.36a179.47,179.47,0,0,1,15,36.7c6.4,22.82,7.42,45.94,4.43,69.24-4.17,32.4-16.67,61.51-37.77,86.37-28.24,33.29-63.89,53.56-107.48,60.46-21.42,3.38-42.25,2.22-63-2.12-19-4-36.66-11.9-53.39-21.75-3.15-1.85-4.7-4.55-4.69-8.63q.23-75.21,0-150.46c0-5.18,1.61-7,6.82-6.83a217.3,217.3,0,0,0,24.48-.12c5.9-.41,7.54,2.52,7.4,7.29-1.23,40.8-.18,81.6-.52,122.4-.11,13.78-1.66,10.59,11.28,15.39,25.61,9.52,52.35,11.47,79,4.43,31.73-8.38,57.17-25.9,76.56-53,18.32-25.65,25-53.86,24.65-84.66-.34-28.45-.11-56.91,0-85.37,0-3.91.91-7.82,1.4-11.73Z"/><path class="cls-2" d="M191.92,172.82c0,29.18-.12,58.35.1,87.52,0,6.37-2.12,8.86-8.56,8.55-7.42-.36-14.75-.8-22.17-1.8-8.35-1.13-9-6.3-8.88-12.06,1.55-56.69.33-113.38.51-170.07,0-6.69,1.49-9,8.76-8,7.78,1.06,15.84.5,23.75.08,5.36-.28,6.75,1.76,6.71,6.85-.19,29.64-.09,59.27-.09,88.91Z"/><path class="cls-3" d="M307.29,67.52l-.64-.55c.14,0,.33,0,.39.08a2.1,2.1,0,0,1,.19.53Z"/></g></g></svg>