<?xml version="1.0" encoding="utf-8"?>
<!-- Generator: Adobe Illustrator 26.0.1, SVG Export Plug-In . SVG Version: 6.00 Build 0)  -->
<svg version="1.1" xmlns="http://www.w3.org/2000/svg" xmlns:xlink="http://www.w3.org/1999/xlink" x="0px" y="0px"
	 viewBox="0 0 344.3 344.7" style="enable-background:new 0 0 344.3 344.7;" xml:space="preserve">
<style type="text/css">
	.st0{fill:#FFFFFF;}
	.st1{fill:#004B81;}
	.st2{fill:#0CB6EA;}
	.st3{fill:#CAAB60;}
</style>
<g id="Layer_2">
	<rect class="st0" width="344.7" height="344.7"/>
</g>
<g id="Layer_1">
	<g id="Layer_2_00000075878098655566024020000003174004595124990891_">
		<g id="Layer_1-2">
			<path class="st1" d="M259.1,116c0,22.4-0.1,44.9,0.1,67.3c0.1,5.7-1.7,7.3-7.4,6.7c-7.1-0.6-14.3,0-21.5,0.2
				c-4.8,0.1-6.7-1.7-6.6-6.8c0.6-25.2,0-50.3,0.5-75.5c0.3-13.7-0.2-27.5-0.4-41.2c0-2.6-0.8-4-3.4-5.3
				c-10.1-5.3-21.1-7.7-32.1-9.2c-26.3-3.5-51.4,1-74.5,14.1c-35.4,20-56.7,50.3-61.4,90.7c-3.8,32-0.7,64.3-1.4,96.4
				c-0.1,3.2,0.1,6.3,0,9.5c-0.1,1.5,0.7,3.8-1.5,4.3c-1.5,0.3-2.5-1.5-3.3-2.6C41,257.5,36.3,250,32.4,242
				c-12.9-26.5-18.3-54.5-15.7-83.7c3-32.3,15.1-61.1,35.9-86.2C70.3,50.7,92.3,35,118.2,25.7c29.1-10.5,59.2-12.7,89.7-5.3
				c16.3,4,31.9,10.4,46.3,19c3.8,2.3,5.1,5,5,9.2C259,71.2,259.1,93.6,259.1,116z"/>
			<path class="st1" d="M294.6,77.3c6.7,5.4,10.5,13,14.5,20.3c5.7,10.6,10.3,21.7,13.6,33.3c5.8,20.7,6.7,41.7,4,62.8
				c-3.8,29.4-15.1,55.8-34.3,78.3c-25.6,30.2-57.9,48.6-97.5,54.8c-19.4,3.1-38.3,2-57.1-1.9c-17.2-3.6-33.2-10.8-48.4-19.7
				c-2.9-1.7-4.3-4.1-4.3-7.8c0.1-45.5,0.1-91,0-136.4c0-4.7,1.5-6.3,6.2-6.2c7.4,0.4,14.8,0.3,22.2-0.1c5.4-0.4,6.8,2.3,6.7,6.6
				c-1.1,37-0.2,74-0.5,111c-0.1,12.5-1.5,9.6,10.2,14c23.2,8.6,47.5,10.4,71.6,4c28.8-7.6,51.8-23.5,69.4-48.1
				c16.6-23.3,22.7-48.8,22.4-76.8c-0.3-25.8-0.1-51.6,0-77.4c0-3.5,0.8-7.1,1.3-10.6L294.6,77.3z"/>
			<path class="st2" d="M190.1,172.8c0,26.5-0.1,52.9,0.1,79.4c0,5.8-1.9,8-7.8,7.8c-6.7-0.3-13.4-0.7-20.1-1.6
				c-7.6-1-8.2-5.7-8.1-10.9c1.4-51.4,0.3-102.8,0.5-154.2c0-6.1,1.4-8.2,7.9-7.3c7.1,1,14.4,0.5,21.5,0.1c4.9-0.3,6.1,1.6,6.1,6.2
				c-0.2,26.9-0.1,53.7-0.1,80.6L190.1,172.8z"/>
			<path class="st3" d="M294.7,77.3l-0.6-0.5c0.1,0,0.3,0,0.4,0.1C294.6,77,294.6,77.2,294.7,77.3L294.7,77.3z"/>
		</g>
	</g>
</g>
</svg>
