<svg xmlns="http://www.w3.org/2000/svg" viewBox="0 0 371.96 411.41"><defs><style>.cls-1{fill:#1d1d1b;}.cls-2{fill:#004b81;}.cls-3{fill:#0cb6ea;}.cls-4{fill:#caab60;}</style></defs><g id="Layer_2" data-name="Layer 2"><g id="Layer_1-2" data-name="Layer 1"><path class="cls-1" d="M47.71,362.75q6,5.85,6,17.38V410.2H38.45V382.47q0-6.24-2.73-9.32c-1.82-2.06-4.46-3.08-7.91-3.08a12.1,12.1,0,0,0-9.17,3.56q-3.42,3.57-3.42,10.6v26H0V357.67H14.54v6.15a20.22,20.22,0,0,1,7.52-5.13,26.14,26.14,0,0,1,9.85-1.8Q41.71,356.89,47.71,362.75Z"/><path class="cls-1" d="M82.36,406.84a33.92,33.92,0,0,1-13.27-12.6,36.71,36.71,0,0,1,0-36.43A33.74,33.74,0,0,1,82.36,345.2a39.29,39.29,0,0,1,19-4.54,39.87,39.87,0,0,1,16.09,3.14,32.14,32.14,0,0,1,12,9l-10.15,9.4a21.8,21.8,0,0,0-17.18-8A22.73,22.73,0,0,0,90.8,357,19.7,19.7,0,0,0,83,364.75a24.46,24.46,0,0,0,0,22.66,19.9,19.9,0,0,0,7.76,7.76A22.93,22.93,0,0,0,102.12,398a21.75,21.75,0,0,0,17.18-8.1l10.15,9.35a31.8,31.8,0,0,1-12.1,9.08,40.3,40.3,0,0,1-16.11,3.13A39.28,39.28,0,0,1,82.36,406.84Z"/><path class="cls-1" d="M147.26,407.52A25.78,25.78,0,0,1,137,397.9,28.12,28.12,0,0,1,137,370a25.85,25.85,0,0,1,10.3-9.62,33.58,33.58,0,0,1,29.71,0A25.86,25.86,0,0,1,187.22,370a28.12,28.12,0,0,1,0,27.93A25.86,25.86,0,0,1,177,407.52,33.58,33.58,0,0,1,147.26,407.52Zm24.49-13q3.76-4,3.76-10.59t-3.76-10.6a12.66,12.66,0,0,0-9.61-3.95,12.84,12.84,0,0,0-9.66,3.95q-3.81,4-3.81,10.6t3.81,10.59a12.89,12.89,0,0,0,9.66,4,12.7,12.7,0,0,0,9.61-4Z"/><path class="cls-1" d="M240.12,362.7q6.54,5.81,6.54,17.53v30H232.45v-6.55q-4.29,7.33-16,7.33A25.17,25.17,0,0,1,206,409a15.67,15.67,0,0,1-6.78-5.67,14.73,14.73,0,0,1-2.34-8.2,13.65,13.65,0,0,1,5.51-11.52q5.52-4.2,17-4.2h12.1c0-3.34-1-5.89-3-7.67s-5-2.68-9.08-2.68a26.56,26.56,0,0,0-8.25,1.31,21.6,21.6,0,0,0-6.88,3.57l-5.5-10.75a32.89,32.89,0,0,1,10.3-4.68,45.55,45.55,0,0,1,12.34-1.66Q233.58,356.89,240.12,362.7Zm-13,36.23a9.9,9.9,0,0,0,4.29-5.32V388.2H221q-9.37,0-9.37,6.16a5.49,5.49,0,0,0,2.29,4.64,10.4,10.4,0,0,0,6.3,1.7,13.41,13.41,0,0,0,6.95-1.77Z"/><path class="cls-1" d="M271.3,407.52a26,26,0,0,1-10.44-9.62,26.5,26.5,0,0,1,8.56-36.49c.61-.38,1.24-.74,1.88-1.06a32.22,32.22,0,0,1,15.08-3.46,29.15,29.15,0,0,1,14.49,3.46,20.58,20.58,0,0,1,9,9.92l-11.81,6.34q-4.1-7.22-11.81-7.22a13.33,13.33,0,0,0-9.86,3.9q-3.9,3.91-3.9,10.65t3.9,10.64a13.35,13.35,0,0,0,9.86,3.91q7.8,0,11.81-7.23l11.81,6.45a21,21,0,0,1-9,9.76A28.84,28.84,0,0,1,286.38,411,32.35,32.35,0,0,1,271.3,407.52Z"/><path class="cls-1" d="M366,362.75q6,5.85,6,17.38V410.2H356.73V382.47q0-6.24-2.73-9.32c-1.82-2.06-4.46-3.08-7.91-3.08a12.1,12.1,0,0,0-9.17,3.56q-3.42,3.57-3.42,10.6v26H318.28V337.75H333.5v25.39a20.2,20.2,0,0,1,7.32-4.64,26.25,26.25,0,0,1,9.37-1.61Q360,356.89,366,362.75Z"/><path class="cls-2" d="M268.68,95c0,21.33-.14,42.65.09,64,.06,5.42-1.61,6.87-7,6.39-6.75-.59-13.61,0-20.42.22-4.52.14-6.39-1.59-6.27-6.42.57-23.92,0-47.85.46-71.78.27-13-.21-26.12-.35-39.19,0-2.46-.8-3.76-3.19-5-9.61-5-20-7.35-30.49-8.76-25-3.36-48.87,1-70.86,13.44C97,66.87,76.76,95.64,72.24,134.1c-3.57,30.4-.66,61.08-1.33,91.62-.06,3,.09,6,0,9-.07,1.47.68,3.63-1.4,4.1-1.44.32-2.36-1.38-3.15-2.5a155.46,155.46,0,0,1-13.12-21.51C40.93,189.65,35.78,163,38.32,135.25c2.8-30.75,14.35-58.08,34.14-81.95a143.07,143.07,0,0,1,62.3-44.13c27.64-10,56.27-12,85.26-5a157.62,157.62,0,0,1,44,18.06c3.64,2.18,4.8,4.71,4.77,8.77C268.6,52.32,268.68,73.65,268.68,95Z"/><path class="cls-2" d="M302.45,58.2c6.4,5.13,10,12.34,13.77,19.27a154.46,154.46,0,0,1,12.91,31.65c5.52,19.67,6.4,39.6,3.82,59.68-3.59,27.92-14.36,53-32.55,74.45-24.35,28.69-55.08,46.17-92.65,52.11-18.46,2.92-36.42,1.92-54.34-1.83-16.39-3.42-31.6-10.25-46-18.74-2.71-1.6-4-3.93-4-7.44q.2-64.86,0-129.69c0-4.47,1.39-6.07,5.88-5.89a195.42,195.42,0,0,0,21.1-.1c5.09-.36,6.51,2.17,6.38,6.27-1,35.17-.15,70.35-.44,105.52-.1,11.87-1.44,9.12,9.72,13.26,22.08,8.2,45.13,9.88,68,3.82,27.35-7.23,49.28-22.33,66-45.72,15.8-22.11,21.57-46.42,21.25-73-.29-24.53-.09-49.07,0-73.59,0-3.38.78-6.75,1.2-10.12Z"/><path class="cls-3" d="M203.08,148.9c0,25.15-.11,50.29.09,75.44,0,5.49-1.83,7.64-7.38,7.37-6.4-.31-12.72-.69-19.11-1.56-7.2-1-7.79-5.42-7.65-10.39,1.33-48.86.27-97.73.43-146.59,0-5.77,1.29-7.74,7.55-6.89,6.71.92,13.66.44,20.47.08,4.63-.25,5.82,1.51,5.79,5.9-.16,25.55-.08,51.09-.08,76.64Z"/><path class="cls-4" d="M302.52,58.13l-.54-.47c.11,0,.28,0,.33.07a1.42,1.42,0,0,1,.16.45Z"/></g></g></svg>